<mxfile host="app.diagrams.net" modified="2023-11-26T14:31:53.235Z" agent="Mozilla/5.0 (Windows NT 10.0; Win64; x64) AppleWebKit/537.36 (KHTML, like Gecko) Chrome/119.0.0.0 Safari/537.36" etag="EV0ov8F9XReNmzkS6q1t" version="22.1.4" type="github">
  <diagram name="Page-1" id="xCIDEymyU3mwBq6ED-GL">
    <mxGraphModel dx="890" dy="698" grid="1" gridSize="10" guides="1" tooltips="1" connect="1" arrows="1" fold="1" page="1" pageScale="1" pageWidth="850" pageHeight="1100" math="0" shadow="0">
      <root>
        <mxCell id="0" />
        <mxCell id="1" parent="0" />
        <mxCell id="dvwHeX3tErqTfIgO_fJy-5" value="" style="edgeStyle=orthogonalEdgeStyle;rounded=0;orthogonalLoop=1;jettySize=auto;html=1;" edge="1" parent="1" source="dvwHeX3tErqTfIgO_fJy-3" target="dvwHeX3tErqTfIgO_fJy-30">
          <mxGeometry relative="1" as="geometry">
            <mxPoint x="375" y="180" as="targetPoint" />
          </mxGeometry>
        </mxCell>
        <mxCell id="dvwHeX3tErqTfIgO_fJy-3" value="Start" style="strokeWidth=2;html=1;shape=mxgraph.flowchart.start_1;whiteSpace=wrap;" vertex="1" parent="1">
          <mxGeometry x="325" y="60" width="100" height="60" as="geometry" />
        </mxCell>
        <mxCell id="dvwHeX3tErqTfIgO_fJy-40" value="" style="edgeStyle=orthogonalEdgeStyle;rounded=0;orthogonalLoop=1;jettySize=auto;html=1;entryX=0;entryY=0.5;entryDx=0;entryDy=0;" edge="1" parent="1" source="dvwHeX3tErqTfIgO_fJy-30" target="dvwHeX3tErqTfIgO_fJy-41">
          <mxGeometry relative="1" as="geometry">
            <mxPoint x="505" y="245" as="targetPoint" />
          </mxGeometry>
        </mxCell>
        <mxCell id="dvwHeX3tErqTfIgO_fJy-30" value="LOGIN" style="rounded=1;whiteSpace=wrap;html=1;absoluteArcSize=1;arcSize=14;strokeWidth=2;" vertex="1" parent="1">
          <mxGeometry x="325" y="210" width="100" height="70" as="geometry" />
        </mxCell>
        <mxCell id="dvwHeX3tErqTfIgO_fJy-44" value="" style="edgeStyle=orthogonalEdgeStyle;rounded=0;orthogonalLoop=1;jettySize=auto;html=1;" edge="1" parent="1" source="dvwHeX3tErqTfIgO_fJy-41" target="dvwHeX3tErqTfIgO_fJy-43">
          <mxGeometry relative="1" as="geometry" />
        </mxCell>
        <mxCell id="dvwHeX3tErqTfIgO_fJy-41" value="ADMIN" style="rounded=0;whiteSpace=wrap;html=1;" vertex="1" parent="1">
          <mxGeometry x="510" y="215" width="90" height="60" as="geometry" />
        </mxCell>
        <mxCell id="dvwHeX3tErqTfIgO_fJy-57" value="" style="edgeStyle=orthogonalEdgeStyle;rounded=0;orthogonalLoop=1;jettySize=auto;html=1;" edge="1" parent="1" source="dvwHeX3tErqTfIgO_fJy-43" target="dvwHeX3tErqTfIgO_fJy-58">
          <mxGeometry relative="1" as="geometry">
            <mxPoint x="555" y="515" as="targetPoint" />
          </mxGeometry>
        </mxCell>
        <mxCell id="dvwHeX3tErqTfIgO_fJy-43" value="Validasi&lt;br&gt;login" style="rhombus;whiteSpace=wrap;html=1;rounded=0;" vertex="1" parent="1">
          <mxGeometry x="515" y="345" width="80" height="80" as="geometry" />
        </mxCell>
        <mxCell id="dvwHeX3tErqTfIgO_fJy-52" value="" style="endArrow=classic;html=1;rounded=0;exitX=0;exitY=0.5;exitDx=0;exitDy=0;entryX=0.5;entryY=1;entryDx=0;entryDy=0;" edge="1" parent="1" source="dvwHeX3tErqTfIgO_fJy-43" target="dvwHeX3tErqTfIgO_fJy-30">
          <mxGeometry width="50" height="50" relative="1" as="geometry">
            <mxPoint x="380" y="330" as="sourcePoint" />
            <mxPoint x="430" y="280" as="targetPoint" />
            <Array as="points">
              <mxPoint x="375" y="385" />
            </Array>
          </mxGeometry>
        </mxCell>
        <mxCell id="dvwHeX3tErqTfIgO_fJy-58" value="Halaman&lt;br&gt;utama" style="rounded=1;whiteSpace=wrap;html=1;absoluteArcSize=1;arcSize=14;strokeWidth=2;" vertex="1" parent="1">
          <mxGeometry x="505" y="500" width="100" height="90" as="geometry" />
        </mxCell>
        <mxCell id="dvwHeX3tErqTfIgO_fJy-59" value="NO" style="text;html=1;strokeColor=none;fillColor=none;align=center;verticalAlign=middle;whiteSpace=wrap;rounded=0;" vertex="1" parent="1">
          <mxGeometry x="450" y="350" width="60" height="30" as="geometry" />
        </mxCell>
        <mxCell id="dvwHeX3tErqTfIgO_fJy-60" value="Yes" style="text;html=1;strokeColor=none;fillColor=none;align=center;verticalAlign=middle;whiteSpace=wrap;rounded=0;" vertex="1" parent="1">
          <mxGeometry x="545" y="420" width="60" height="30" as="geometry" />
        </mxCell>
      </root>
    </mxGraphModel>
  </diagram>
</mxfile>
